<svg id="レイヤー_1" data-name="レイヤー 1" xmlns="http://www.w3.org/2000/svg" viewBox="0 0 388.74 38.34"><defs><style>.cls-1{fill:#fff;}</style></defs><path class="cls-1" d="M129.93,436.55A27,27,0,0,1,116.75,440c-8.21,0-13.12-4.7-13.12-14.37,0-16.84,9.83-22.84,19.12-22.84,4.64,0,9.28,1.84,11.87,6.91l-5.12,3.08c-1.84-3-4.11-4.43-7.29-4.43-6.86,0-11.72,6.48-11.72,16.8,0,5.94,2.32,9.5,7.56,9.5a13.15,13.15,0,0,0,6.15-1.35l1.46-7.77h-5.29l.75-5h11.67Z" transform="translate(-103.63 -401.83)"/><path class="cls-1" d="M147.21,401.88l-5,28.57a17.39,17.39,0,0,0-.33,2.48c0,1.68.76,2.22,2.38,2.22a10.42,10.42,0,0,0,3.56-.92l.81,4.32a14.32,14.32,0,0,1-6.8,1.62c-4.92,0-6.48-2.43-6.48-6.05a21.73,21.73,0,0,1,.38-3.56l5.07-28.68Z" transform="translate(-103.63 -401.83)"/><path class="cls-1" d="M164.6,411.39c3.67,0,9.88,1.56,9.88,10.15a32.25,32.25,0,0,1-.27,4.27c-1.62,10.53-7.94,14.36-15.12,14.36-6.32,0-9.88-3.73-9.88-10.48a26.19,26.19,0,0,1,.32-4.42C151.37,414.09,158.87,411.39,164.6,411.39Zm2.86,14.74a25.86,25.86,0,0,0,.32-4.32c0-3.46-1.19-5.67-4.21-5.67-3.94,0-6.48,3.62-7.4,8.8a29.19,29.19,0,0,0-.38,4.75c0,3.24,1,5.73,4.27,5.73C164,435.42,166.48,431.75,167.46,426.13Z" transform="translate(-103.63 -401.83)"/><path class="cls-1" d="M182.14,401.83h6.43l-2.16,12a10.7,10.7,0,0,1,7-2.48c5.5,0,8.69,3.56,8.69,10.1,0,11.55-5.78,18.68-15.93,18.68-3.78,0-8.32-1-10.42-2.32Zm.65,32.67a9,9,0,0,0,4.27,1c4.16,0,8.48-4.86,8.48-13.13,0-3-1-6.31-4.75-6.31-2.54,0-5,1.62-5.46,4.05Z" transform="translate(-103.63 -401.83)"/><path class="cls-1" d="M227.12,434.18l-.37,5.18h-5.56l.1-2.86c-.1,0-.1-.06-.21-.06a9.61,9.61,0,0,1-8.16,3.68c-5.72,0-8.53-4.05-8.53-9.89,0-11.17,6-18.84,16.74-18.84a28.78,28.78,0,0,1,9.67,1.89Zm-3.29-17.45a9.75,9.75,0,0,0-3.83-.64c-7.08,0-9.18,8.2-9.18,13.44,0,3.13,1,5.94,4.43,5.94a6.07,6.07,0,0,0,6.15-4.7Z" transform="translate(-103.63 -401.83)"/><path class="cls-1" d="M244.46,401.88l-5,28.57a19,19,0,0,0-.33,2.48c.06,1.68.76,2.22,2.38,2.22a10.42,10.42,0,0,0,3.56-.92l.81,4.32a14.32,14.32,0,0,1-6.8,1.62c-4.91,0-6.48-2.43-6.48-6.05a21.73,21.73,0,0,1,.38-3.56L238,401.88Z" transform="translate(-103.63 -401.83)"/><path class="cls-1" d="M273.62,430.77l2.81,4.32A20.65,20.65,0,0,1,263.2,440c-8.26,0-13.23-5-13.23-14.31,0-17.12,10-22.9,19.33-22.9A12.6,12.6,0,0,1,281,409.71l-5,3.14c-1.73-2.87-3.94-4.49-7.18-4.49-7,0-11.88,6.38-11.88,16.42,0,6.1,2.38,9.77,7.67,9.77C267.57,434.55,270.49,433.2,273.62,430.77Z" transform="translate(-103.63 -401.83)"/><path class="cls-1" d="M300.67,434.18l-.37,5.18h-5.57l.11-2.86c-.11,0-.11-.06-.21-.06a9.61,9.61,0,0,1-8.16,3.68c-5.72,0-8.53-4.05-8.53-9.89,0-11.17,6-18.84,16.74-18.84a28.82,28.82,0,0,1,9.67,1.89Zm-3.29-17.45a9.79,9.79,0,0,0-3.83-.64c-7.08,0-9.18,8.2-9.18,13.44,0,3.13,1,5.94,4.42,5.94a6.08,6.08,0,0,0,6.16-4.7Z" transform="translate(-103.63 -401.83)"/><path class="cls-1" d="M311.47,439.36h-6.42l4.05-22.84.27-4.32h5.29l-.05,3.89a8.14,8.14,0,0,1,7.23-4.7,8,8,0,0,1,4.27,1.08l-2.05,5.24a7.28,7.28,0,0,0-3.57-.87c-2.91,0-5.29,2.27-6,5.4Z" transform="translate(-103.63 -401.83)"/><path class="cls-1" d="M348.41,417.71c0,9.45-11.34,10.58-17.12,10.63-.27,3.46,1,6.86,5.56,6.86a12.93,12.93,0,0,0,7-2.37l1.94,4.21a18.12,18.12,0,0,1-10.47,3.13c-7.4,0-10.48-4.59-10.48-10.85,0-9.35,6-17.93,15.82-17.93C345.55,411.39,348.41,413.93,348.41,417.71ZM339.66,416c-4.48,0-7,4.38-7.78,7.94,3.14,0,10.64-.76,10.64-5.4C342.52,416.9,341.34,416,339.66,416Z" transform="translate(-103.63 -401.83)"/><path class="cls-1" d="M373.79,417.71c0,9.45-11.34,10.58-17.12,10.63-.27,3.46,1,6.86,5.56,6.86a12.93,12.93,0,0,0,7-2.37l1.94,4.21a18.12,18.12,0,0,1-10.47,3.13c-7.4,0-10.48-4.59-10.48-10.85,0-9.35,6-17.93,15.82-17.93C370.93,411.39,373.79,413.93,373.79,417.71ZM365,416c-4.48,0-7,4.38-7.78,7.94,3.14,0,10.64-.76,10.64-5.4C367.9,416.9,366.71,416,365,416Z" transform="translate(-103.63 -401.83)"/><path class="cls-1" d="M382,439.36h-6.43l4.05-22.84.27-4.32h5.29l-.05,3.89a8.14,8.14,0,0,1,7.23-4.7,8,8,0,0,1,4.27,1.08l-2.05,5.24a7.25,7.25,0,0,0-3.57-.87c-2.91,0-5.29,2.27-6,5.4Z" transform="translate(-103.63 -401.83)"/><path class="cls-1" d="M394,432.83c2.11,0,3.24,1.18,3.24,3a4.29,4.29,0,0,1-4.37,4.37c-2.22,0-3.3-1.24-3.3-3A4.3,4.3,0,0,1,394,432.83Z" transform="translate(-103.63 -401.83)"/><path class="cls-1" d="M419.9,432.77l2,4.38a17.94,17.94,0,0,1-10.21,3c-6.69,0-10.37-4.21-10.37-11.34,0-13.07,8.05-17.44,14.8-17.44,3.67,0,7.56,1.46,9.45,5.56l-4.43,2.92c-1.24-2.11-2.81-3.35-5.07-3.35-4.76,0-8.16,4.43-8.16,11.61,0,4.16,1.68,6.91,5.51,6.91A11.5,11.5,0,0,0,419.9,432.77Z" transform="translate(-103.63 -401.83)"/><path class="cls-1" d="M440.64,411.39c3.67,0,9.88,1.56,9.88,10.15a30.63,30.63,0,0,1-.27,4.27c-1.62,10.53-7.94,14.36-15.12,14.36-6.32,0-9.88-3.73-9.88-10.48a26.19,26.19,0,0,1,.32-4.42C427.41,414.09,434.92,411.39,440.64,411.39Zm2.86,14.74a25.86,25.86,0,0,0,.32-4.32c0-3.46-1.18-5.67-4.21-5.67-3.94,0-6.48,3.62-7.4,8.8a30.31,30.31,0,0,0-.37,4.75c0,3.24,1,5.73,4.26,5.73C440,435.42,442.53,431.75,443.5,426.13Z" transform="translate(-103.63 -401.83)"/><path class="cls-1" d="M451.65,439.36l4-22.46.37-4.7h5.35l-.11,3.35a11.28,11.28,0,0,1,8.64-4.16c3.4,0,5.78,1.29,6.7,4.32a10.74,10.74,0,0,1,8.69-4.32c4.59,0,7.13,2.27,7.13,6.8a19.11,19.11,0,0,1-.27,2.92l-3.24,18.25h-6.42l3-17.12a12.44,12.44,0,0,0,.27-2.32c0-2.05-.65-3.56-3.08-3.56a6.51,6.51,0,0,0-6.1,5.5l-3.08,17.5H467l3-17.12a12.48,12.48,0,0,0,.27-2.37c0-1.95-.54-3.51-3.13-3.51-3.24,0-5.62,2.7-6.11,5.61l-3,17.39Z" transform="translate(-103.63 -401.83)"/></svg>